PathFileType	4	(X/Y/Z)	G:\TennisProject\Miami_Dimitrov_Sinner_masked_Sports2D\Miami_Dimitrov_Sinner_masked_Sports2D_m_person01.trc
DataRate	CameraRate	NumFrames	NumMarkers	Units	OrigDataRate	OrigDataStartFrame	OrigNumFrames
25	25	8	22	m	25	249	499
Frame#	Time	Hip			RHip			RKnee			RAnkle			RBigToe			RSmallToe			RHeel			LHip			LKnee			LAnkle			LBigToe			LSmallToe			LHeel			Neck			Head			Nose			RShoulder			RElbow			RWrist			LShoulder			LElbow			LWrist		
		X1	Y1	Z1	X2	Y2	Z2	X3	Y3	Z3	X4	Y4	Z4	X5	Y5	Z5	X6	Y6	Z6	X7	Y7	Z7	X8	Y8	Z8	X9	Y9	Z9	X10	Y10	Z10	X11	Y11	Z11	X12	Y12	Z12	X13	Y13	Z13	X14	Y14	Z14	X15	Y15	Z15	X16	Y16	Z16	X17	Y17	Z17	X18	Y18	Z18	X19	Y19	Z19	X20	Y20	Z20	X21	Y21	Z21	X22	Y22	Z22
249	9.96	8.964284506766827	-8.493696116651089	0.0	9.108148963131482	-8.546009833809068	0.0	9.785410722577693	-9.343812050489062	0.0	9.550332597506435	-10.349206201676749	0.0	10.014225029253218	-10.509269573747796	0.0	9.909492136006055	-10.550565936165423	0.0	9.427742447489111	-10.460984989958128	0.0	8.901237816987434	-8.431096288264857	0.0	8.904297601177294	-9.05490048574209	0.0	8.325885668631612	-9.74567716820907	0.0	8.60295100938109	-9.900944406734007	0.0	8.531681682380126	-9.87756096686658	0.0	8.160512119710601	-9.830699568126063	0.0	9.909706354442408	-7.481086224293941	0.0	10.273681967346862	-6.923883027952767	0.0	10.157265813689014	-7.294465825611595	0.0	9.56553647091906	-7.632941271397679	0.0	9.163437633170718	-8.103005962574553	0.0	9.278668003753511	-8.614352034924131	0.0	10.107995108585952	-7.4891558872205914	0.0	10.595952199742376	-7.76247774225502	0.0	11.145067670605398	-8.075090581210981	0.0
250	10.0	8.875925366223559	-8.39716377575194	0.0	9.03930404957776	-8.466287521672923	0.0	9.673375933079466	-9.283325126860422	0.0	9.529415644752225	-10.320696588057634	0.0	9.977744958802916	-10.481038072054492	0.0	9.884396807630502	-10.527578697244948	0.0	9.419782970056398	-10.4385045904287	0.0	8.782072671374422	-8.3311764104085	0.0	8.796298995859424	-9.003189040716808	0.0	8.27662242918601	-9.725865482637682	0.0	8.558595959194122	-9.8658547351738	0.0	8.500196641783068	-9.85469762281462	0.0	8.128719030545628	-9.828754409174158	0.0	9.774421520510005	-7.371495545676368	0.0	10.168241560560583	-6.827531703756643	0.0	10.052965497652412	-7.19032478562506	0.0	9.500150350174417	-7.6128388610964635	0.0	9.228234057497817	-8.17682822305123	0.0	9.3032747866817	-8.709599028318161	0.0	9.842630159891174	-7.332659901777472	0.0	10.240590033546399	-7.587385088345494	0.0	10.756856960151545	-7.880864089312596	0.0
251	10.040000000000001	8.849396536290403	-8.283995892013735	0.0	9.033878893687763	-8.372112310693344	0.0	9.573400013261967	-9.2191142477359	0.0	9.477739225966827	-10.250740844395082	0.0	9.88903718017735	-10.45240761567652	0.0	9.817665278103505	-10.49937216856146	0.0	9.37154220358625	-10.38008400484939	0.0	8.692817280940808	-8.224419393990885	0.0	8.724402360709291	-8.928186027552346	0.0	8.26189275156247	-9.68917119232811	0.0	8.538738512339325	-9.846360880728936	0.0	8.464955429365483	-9.83205705084154	0.0	8.134913809727893	-9.806358579108483	0.0	9.645710369061492	-7.218395404434257	0.0	10.087776769585226	-6.700657715634682	0.0	9.985746878026243	-7.062588100337865	0.0	9.536215197405928	-7.560852790356111	0.0	9.444836866942317	-8.20522877062969	0.0	9.586719267567087	-8.727170923089625	0.0	9.501814128008583	-7.112573274078536	0.0	9.683506388233877	-7.313929026263533	0.0	10.10831503784866	-7.560841864913493	0.0
252	10.08	8.859076736345918	-8.188594568872624	0.0	9.055807805208081	-8.279557980128288	0.0	9.47807052002626	-9.179831765525117	0.0	9.376119625669356	-10.149242862797102	0.0	9.719771686087459	-10.441612182946082	0.0	9.682707954455708	-10.47545092615947	0.0	9.264302589483204	-10.281584759988787	0.0	8.644574920346212	-8.134288143996073	0.0	8.68985305822842	-8.819691604746966	0.0	8.285658675778958	-9.617588169689974	0.0	8.55784979975436	-9.82620112959797	0.0	8.47021218124619	-9.801258132274752	0.0	8.17516442184247	-9.742274492332584	0.0	9.522758529633727	-7.0661136470304475	0.0	9.996377662466237	-6.562261359930383	0.0	9.895322102513049	-6.931735029017333	0.0	9.620305857389377	-7.446716844615633	0.0	9.744763212721903	-8.105520411524505	0.0	10.035131932954771	-8.530353464480356	0.0	9.196907263173586	-6.906696117571148	0.0	9.057985553371259	-7.0244207332934305	0.0	9.388648110658156	-7.20083542718237	0.0
253	10.120000000000001	8.869438568771054	-8.122363895046519	0.0	9.06570175159745	-8.196561583970073	0.0	9.377855649593437	-9.167662750613227	0.0	9.243548737850833	-10.06128603251666	0.0	9.50388182973979	-10.456172798392219	0.0	9.51352633913913	-10.468120660267077	0.0	9.132067904705455	-10.182982196698672	0.0	8.634838496910191	-8.069745972034164	0.0	8.662864624268849	-8.695386357559775	0.0	8.321912764844162	-9.516363381128794	0.0	8.578097786743967	-9.755438720213517	0.0	8.479165328168524	-9.740744391252818	0.0	8.229164762283208	-9.647319059015185	0.0	9.398107282519307	-6.947684868301992	0.0	9.870541822243656	-6.437844984291898	0.0	9.7515415220208	-6.811363947002183	0.0	9.65471091185812	-7.280014154149742	0.0	10.005103193336648	-7.83660118849963	0.0	10.356311988924373	-8.013537550139068	0.0	8.982510010544596	-6.795357497666841	0.0	8.60573259598777	-6.858281361665021	0.0	8.915544256958308	-6.92918126366391	0.0
254	10.16	8.879724331146933	-8.076780012026331	0.0	9.078828468227703	-8.134167060264556	0.0	9.28309848808224	-9.161620021679653	0.0	9.13772941081204	-10.020959996685566	0.0	9.34102846029771	-10.477994708058022	0.0	9.393601020520931	-10.474221837216406	0.0	9.039313220102187	-10.142673260833005	0.0	8.647150562836766	-8.031557171810816	0.0	8.620496495491171	-8.59391448431249	0.0	8.315471268804627	-9.421089015571802	0.0	8.529932574182132	-9.64168572436582	0.0	8.403042212802982	-9.656233501025325	0.0	8.24313726625738	-9.563736997022618	0.0	9.277642015488276	-6.873829534772055	0.0	9.713975638952055	-6.333945314384447	0.0	9.587468710232416	-6.699537460309589	0.0	9.609458319128034	-7.122835639841149	0.0	10.106089284423538	-7.425558591121955	0.0	10.323070837983028	-7.297429250513544	0.0	8.836856104181743	-6.787639201593364	0.0	8.371350360198317	-6.860227012263026	0.0	8.706521869075072	-6.799024429688387	0.0
255	10.200000000000001	8.896276343902297	-8.052852992447479	0.0	9.111352142283597	-8.104918706805048	0.0	9.229164554825015	-9.152658280719091	0.0	9.109627950968006	-10.006003662987574	0.0	9.290203107070433	-10.481921065165718	0.0	9.357113680916324	-10.473639873838815	0.0	9.023063609946725	-10.154510780444417	0.0	8.664161361476129	-8.020648203815398	0.0	8.561275497907742	-8.570706198643416	0.0	8.227958024838607	-9.38987978667066	0.0	8.374481659755265	-9.601826285641748	0.0	8.2114638787491	-9.628608634016032	0.0	8.170720416544604	-9.547447040346338	0.0	9.181964037184915	-6.845580898623128	0.0	9.55882859405577	-6.254961536536238	0.0	9.458486731989986	-6.604713208228259	0.0	9.532918853030983	-7.025389134304674	0.0	9.954667850985325	-6.9745061907527255	0.0	9.93690917505927	-6.674290183243721	0.0	8.747125536310303	-6.840406319443133	0.0	8.237864432952911	-6.972748574703764	0.0	8.554385326141947	-6.790356433453835	0.0
256	10.24	8.90776755121209	-8.06205188368268	0.0	9.14129719812136	-8.109617457991986	0.0	9.246891801297098	-9.151607229732862	0.0	9.162598921128685	-9.97280320035936	0.0	9.31305448423851	-10.467687208092457	0.0	9.374367422955544	-10.45570523446953	0.0	9.07954439581475	-10.153347824687723	0.0	8.677821571033913	-8.042571646251618	0.0	8.48488425407581	-8.655086570444558	0.0	8.081470227070044	-9.46483644154143	0.0	8.164648408505078	-9.708292413119315	0.0	7.9825090662803495	-9.713541726129186	0.0	8.033783642677154	-9.630882081836871	0.0	9.111468644456243	-6.848884607111122	0.0	9.4321203502603	-6.2234751238408235	0.0	9.365203053454628	-6.555235122787077	0.0	9.460020583699608	-6.979049752175293	0.0	9.56078452129254	-6.625708011230061	0.0	9.325151225893409	-6.3419589698904435	0.0	8.70100331190595	-6.923266057309307	0.0	8.159247403222919	-7.149521391120484	0.0	8.377630582536204	-6.860961158112198	0.0
